<svg width="286" height="59" viewBox="0 0 286 59" fill="none" xmlns="http://www.w3.org/2000/svg">
<rect width="285" height="59" transform="translate(1)" fill="white"/>
<path d="M52.4732 35.0035C51.4871 33.1514 50.501 31.299 49.515 29.4469C49.3231 29.0863 49.1196 28.7315 48.9121 28.3786C48.9623 28.3572 49.0094 28.3226 49.0479 28.2692C51.2479 25.2244 53.2969 22.0594 55.5455 19.0524C57.0926 16.9841 59.005 14.6785 59.6362 12.121C59.8167 11.389 59.7439 10.4909 58.9557 10.1641C57.5493 9.58066 56.2892 10.6617 55.4814 11.7026C54.944 12.3946 54.5207 13.1686 54.0969 13.9327C53.393 15.2006 52.6063 16.4267 51.8714 17.6775C50.3229 20.3119 48.6996 22.8717 47.0128 25.4176C46.5293 24.7039 46.0416 23.9942 45.5682 23.2814C43.7713 20.577 42.1979 17.7413 40.5205 14.9631C39.6302 13.4881 38.8708 11.5721 37.4112 10.5537C36.651 10.0237 35.2376 9.64937 34.5581 10.5364C33.9926 11.2745 34.3981 12.3686 34.7094 13.1225C35.2511 14.4341 36.0458 15.6416 36.843 16.8092C39.5346 20.7506 42.3174 24.6451 45.1295 28.5075C41.5283 35.1852 37.9272 41.8631 34.3268 48.5412C34.1312 48.9036 34.6346 49.1796 34.8681 48.8575C37.0041 45.9131 39.152 42.9777 41.097 39.902C42.9912 36.9066 44.8885 33.9189 47.0074 31.0762C49.04 33.8117 50.8877 36.6753 52.6968 39.5615C54.7016 42.7596 56.925 45.8041 59.14 48.8575C59.3737 49.1796 59.8747 48.9044 59.6813 48.5412C57.2784 44.0285 54.8759 39.516 52.4732 35.0035ZM47.4042 25.9624C50.1244 21.8679 52.6587 17.6771 55.1075 13.415C55.749 12.2987 57.1835 9.92458 58.8034 10.7846C59.59 11.2024 58.7496 12.8473 58.5123 13.3495C57.5096 15.471 56.0274 17.3634 54.6309 19.2351C52.5392 22.0379 50.6351 24.9968 48.589 27.8367C48.2042 27.2097 47.8003 26.5923 47.3901 25.9793C47.3946 25.9736 47.3996 25.9688 47.4042 25.9624ZM40.5551 39.5857C39.4727 41.3057 38.3212 42.9792 37.1443 44.6353C39.9423 39.4465 42.7402 34.2581 45.538 29.0693C45.8984 29.5635 46.2576 30.0593 46.6188 30.5526C44.4377 33.4561 42.4882 36.5142 40.5551 39.5857ZM53.452 39.5857C51.4524 36.4237 49.45 33.2686 47.1929 30.2809C45.2523 27.6316 43.3337 24.965 41.4582 22.2692C39.8168 19.91 38.0434 17.6017 36.5146 15.169C35.8291 14.0779 34.8681 12.6643 34.9139 11.3176C34.9346 10.7121 35.5424 10.6351 36.0241 10.6444C37.2863 10.6696 38.2036 12.2623 38.7682 13.1924C40.269 15.6642 41.6782 18.1944 43.1617 20.6771C44.8019 23.4223 46.707 25.9994 48.3714 28.7301C50.3682 32.0073 52.0356 35.515 53.8378 38.9004C54.8811 40.8603 55.9248 42.8198 56.9683 44.7797C55.7566 43.0757 54.5703 41.3543 53.452 39.5857Z" fill="#3A1910"/>
<path d="M36.8548 12.1829C36.8097 12.1603 36.766 12.1543 36.7259 12.1601C36.6447 12.1642 36.5671 12.2105 36.5383 12.3118C36.1556 13.6567 37.5023 15.6724 38.6743 16.257C38.82 16.3296 38.9948 16.2415 38.9985 16.0707C39.0156 15.2723 38.5387 14.4651 38.1501 13.7991C37.8488 13.283 37.4191 12.4661 36.8548 12.1829ZM36.9038 12.7429C37.2712 13.0771 37.5524 13.6434 37.7775 14.0167C38.0665 14.4951 38.4132 15.0729 38.5281 15.6545C37.709 15.035 36.856 13.7349 36.9038 12.7429Z" fill="#3A1910"/>
<path d="M55.4491 16.0042C56.4755 15.4921 57.6553 13.7264 57.3199 12.5485C57.2948 12.4599 57.2267 12.4194 57.1559 12.4157C57.1205 12.4107 57.0822 12.4159 57.0429 12.4355C56.5433 12.6867 56.1817 13.399 55.9086 13.8513C55.5619 14.4252 55.1503 15.1486 55.1652 15.8414C55.1682 15.9907 55.3217 16.0679 55.4491 16.0042ZM56.2345 14.0419C56.4247 13.7155 56.6779 13.2187 56.9998 12.9266C57.0419 13.7951 56.2945 14.9337 55.577 15.4766C55.6789 14.9669 55.9859 14.4681 56.2345 14.0419Z" fill="#3A1910"/>
<path d="M70.8469 29.95C70.8469 28.212 71.1439 26.628 71.7379 25.198C72.3319 23.746 73.1569 22.503 74.2129 21.469C75.2689 20.413 76.5009 19.599 77.9089 19.027C79.3389 18.455 80.8789 18.169 82.5289 18.169C84.9049 18.169 87.0059 18.741 88.8319 19.885C90.6799 21.007 92.0659 22.624 92.9899 24.736L89.2609 25.825C88.7769 24.901 88.1719 24.153 87.4459 23.581C86.7419 23.009 85.9719 22.591 85.1359 22.327C84.2999 22.063 83.4529 21.931 82.5949 21.931C81.1869 21.931 79.9329 22.272 78.8329 22.954C77.7329 23.614 76.8749 24.549 76.2589 25.759C75.6649 26.969 75.3679 28.366 75.3679 29.95C75.3679 31.534 75.6649 32.931 76.2589 34.141C76.8749 35.329 77.7329 36.264 78.8329 36.946C79.9329 37.628 81.1869 37.969 82.5949 37.969C83.4749 37.969 84.3439 37.837 85.2019 37.573C86.0819 37.287 86.8959 36.814 87.6439 36.154C88.3919 35.494 89.0299 34.614 89.5579 33.514L93.2209 34.537C92.2749 36.935 90.8669 38.739 88.9969 39.949C87.1269 41.137 84.9709 41.731 82.5289 41.731C80.8789 41.731 79.3389 41.445 77.9089 40.873C76.5009 40.301 75.2689 39.487 74.2129 38.431C73.1569 37.375 72.3319 36.132 71.7379 34.702C71.1439 33.25 70.8469 31.666 70.8469 29.95ZM97.7364 25H101.564L101.861 27.112C102.323 26.54 102.84 26.078 103.412 25.726C104.006 25.352 104.655 25.099 105.359 24.967C106.063 24.813 106.8 24.824 107.57 25V28.96C106.976 28.762 106.349 28.707 105.689 28.795C105.051 28.883 104.446 29.114 103.874 29.488C103.324 29.862 102.862 30.401 102.488 31.105C102.136 31.787 101.96 32.656 101.96 33.712V41.5H97.7364V25ZM120.965 41.5L120.635 39.487C120.085 40.169 119.458 40.708 118.754 41.104C118.072 41.5 117.148 41.698 115.982 41.698C114.882 41.698 113.914 41.511 113.078 41.137C112.264 40.741 111.626 40.202 111.164 39.52C110.702 38.816 110.471 37.991 110.471 37.045C110.471 35.659 110.966 34.515 111.956 33.613C112.968 32.689 114.486 32.106 116.51 31.864L120.635 31.402V30.247C120.635 29.785 120.426 29.356 120.008 28.96C119.59 28.564 118.93 28.366 118.028 28.366C117.236 28.366 116.543 28.564 115.949 28.96C115.377 29.334 114.992 29.906 114.794 30.676L111.164 29.356C111.604 27.882 112.44 26.749 113.672 25.957C114.904 25.165 116.422 24.769 118.226 24.769C120.426 24.769 122.076 25.319 123.176 26.419C124.298 27.497 124.859 28.927 124.859 30.709V41.5H120.965ZM120.635 34.339L117.071 34.801C116.345 34.889 115.795 35.109 115.421 35.461C115.047 35.791 114.86 36.198 114.86 36.682C114.86 37.144 115.047 37.54 115.421 37.87C115.795 38.178 116.323 38.332 117.005 38.332C117.775 38.332 118.424 38.189 118.952 37.903C119.502 37.617 119.92 37.199 120.206 36.649C120.492 36.099 120.635 35.417 120.635 34.603V34.339ZM130.511 23.515C130.511 22.085 130.764 20.919 131.27 20.017C131.798 19.115 132.568 18.466 133.58 18.07C134.614 17.674 135.901 17.564 137.441 17.74V21.469C136.473 21.337 135.78 21.469 135.362 21.865C134.966 22.261 134.768 22.877 134.768 23.713V25H137.639V28.729H134.768V41.5H130.511V28.729H128.564V25H130.511V23.515ZM142.79 25V20.38H147.08V25H150.71V28.729H147.08V35.428C147.08 36.286 147.256 36.891 147.608 37.243C147.982 37.595 148.444 37.782 148.994 37.804C149.566 37.826 150.138 37.793 150.71 37.705V41.335C149.698 41.555 148.708 41.621 147.74 41.533C146.794 41.445 145.947 41.192 145.199 40.774C144.451 40.334 143.857 39.674 143.417 38.794C142.999 37.914 142.79 36.792 142.79 35.428V28.729H140.447V25H142.79ZM162.2 41.731C160.594 41.731 159.164 41.39 157.91 40.708C156.656 40.004 155.666 39.025 154.94 37.771C154.236 36.495 153.884 34.999 153.884 33.283C153.884 31.545 154.247 30.038 154.973 28.762C155.721 27.486 156.733 26.507 158.009 25.825C159.285 25.121 160.715 24.769 162.299 24.769C163.883 24.769 165.313 25.121 166.589 25.825C167.865 26.507 168.877 27.486 169.625 28.762C170.373 30.016 170.747 31.501 170.747 33.217C170.747 34.955 170.362 36.462 169.592 37.738C168.844 39.014 167.821 40.004 166.523 40.708C165.247 41.39 163.806 41.731 162.2 41.731ZM162.167 37.936C162.849 37.936 163.498 37.771 164.114 37.441C164.73 37.089 165.236 36.572 165.632 35.89C166.028 35.186 166.226 34.295 166.226 33.217C166.226 32.183 166.039 31.325 165.665 30.643C165.291 29.939 164.796 29.422 164.18 29.092C163.586 28.74 162.937 28.564 162.233 28.564C161.551 28.564 160.913 28.74 160.319 29.092C159.747 29.422 159.285 29.939 158.933 30.643C158.603 31.325 158.438 32.205 158.438 33.283C158.438 34.317 158.603 35.186 158.933 35.89C159.263 36.572 159.714 37.089 160.286 37.441C160.858 37.771 161.485 37.936 162.167 37.936ZM178.667 39.025L179.195 38.959V48.1H174.971V25H178.799L179.063 27.046C179.547 26.408 180.229 25.869 181.109 25.429C181.989 24.989 183.001 24.769 184.145 24.769C185.575 24.769 186.84 25.121 187.94 25.825C189.04 26.529 189.898 27.519 190.514 28.795C191.152 30.049 191.471 31.534 191.471 33.25C191.471 34.966 191.152 36.462 190.514 37.738C189.898 39.014 189.04 40.004 187.94 40.708C186.862 41.39 185.597 41.731 184.145 41.731C182.869 41.731 181.758 41.467 180.812 40.939C179.888 40.411 179.173 39.773 178.667 39.025ZM186.917 33.25C186.917 31.864 186.554 30.753 185.828 29.917C185.124 29.059 184.2 28.63 183.056 28.63C182.352 28.63 181.703 28.817 181.109 29.191C180.537 29.543 180.075 30.06 179.723 30.742C179.371 31.402 179.195 32.238 179.195 33.25C179.195 34.24 179.371 35.076 179.723 35.758C180.075 36.44 180.537 36.968 181.109 37.342C181.703 37.694 182.352 37.87 183.056 37.87C184.2 37.87 185.124 37.452 185.828 36.616C186.554 35.758 186.917 34.636 186.917 33.25ZM196.244 25H200.468V41.5H196.244V25ZM198.389 22.888C197.597 22.888 196.948 22.646 196.442 22.162C195.936 21.656 195.683 21.04 195.683 20.314C195.683 19.588 195.936 18.983 196.442 18.499C196.948 17.993 197.597 17.74 198.389 17.74C199.137 17.74 199.764 17.993 200.27 18.499C200.798 18.983 201.062 19.588 201.062 20.314C201.062 21.04 200.798 21.656 200.27 22.162C199.764 22.646 199.137 22.888 198.389 22.888ZM215.785 41.5L215.455 39.487C214.905 40.169 214.278 40.708 213.574 41.104C212.892 41.5 211.968 41.698 210.802 41.698C209.702 41.698 208.734 41.511 207.898 41.137C207.084 40.741 206.446 40.202 205.984 39.52C205.522 38.816 205.291 37.991 205.291 37.045C205.291 35.659 205.786 34.515 206.776 33.613C207.788 32.689 209.306 32.106 211.33 31.864L215.455 31.402V30.247C215.455 29.785 215.246 29.356 214.828 28.96C214.41 28.564 213.75 28.366 212.848 28.366C212.056 28.366 211.363 28.564 210.769 28.96C210.197 29.334 209.812 29.906 209.614 30.676L205.984 29.356C206.424 27.882 207.26 26.749 208.492 25.957C209.724 25.165 211.242 24.769 213.046 24.769C215.246 24.769 216.896 25.319 217.996 26.419C219.118 27.497 219.679 28.927 219.679 30.709V41.5H215.785ZM215.455 34.339L211.891 34.801C211.165 34.889 210.615 35.109 210.241 35.461C209.867 35.791 209.68 36.198 209.68 36.682C209.68 37.144 209.867 37.54 210.241 37.87C210.615 38.178 211.143 38.332 211.825 38.332C212.595 38.332 213.244 38.189 213.772 37.903C214.322 37.617 214.74 37.199 215.026 36.649C215.312 36.099 215.455 35.417 215.455 34.603V34.339Z" fill="#3A1910"/>
</svg>
