<svg width="25" height="24" viewBox="0 0 25 24" fill="none" xmlns="http://www.w3.org/2000/svg">
<path d="M15.5 7.5C15.5 7.5 16 7.5 16.5 8.5C16.5 8.5 18.0882 6 19.5 5.5" stroke="#763A26" stroke-width="1.5" stroke-linecap="round" stroke-linejoin="round"/>
<path d="M22.5 7C22.5 9.76142 20.2614 12 17.5 12C14.7386 12 12.5 9.76142 12.5 7C12.5 4.23858 14.7386 2 17.5 2C20.2614 2 22.5 4.23858 22.5 7Z" stroke="#763A26" stroke-width="1.5" stroke-linecap="round"/>
<path d="M23.25 13.2445C23.2493 12.8302 22.9129 12.495 22.4987 12.4958C22.0845 12.4965 21.7493 12.8329 21.75 13.2471L23.25 13.2445ZM9.56582 6.75292C9.98003 6.75057 10.3139 6.41289 10.3116 5.99869C10.3092 5.58448 9.97154 5.2506 9.55734 5.25294L9.56582 6.75292ZM14 21.2504H11V22.7504H14V21.2504ZM11 21.2504C9.10311 21.2504 7.74353 21.2493 6.69895 21.1313C5.66816 21.0148 5.04359 20.7931 4.57229 20.4209L3.64263 21.5981C4.426 22.2168 5.36842 22.4905 6.53058 22.6218C7.67896 22.7515 9.13832 22.7504 11 22.7504V21.2504ZM1.75 14.0004C1.75 15.7493 1.74857 17.1321 1.88762 18.2226C2.02932 19.3337 2.32681 20.2394 2.99298 20.9866L4.11262 19.9884C3.72599 19.5547 3.49708 18.9856 3.37558 18.0328C3.25143 17.0593 3.25 15.789 3.25 14.0004H1.75ZM4.57229 20.4209C4.40545 20.2892 4.2517 20.1444 4.11262 19.9884L2.99298 20.9866C3.19068 21.2084 3.40811 21.4129 3.64263 21.5981L4.57229 20.4209ZM21.75 14.0004C21.75 15.789 21.7486 17.0593 21.6244 18.0328C21.5029 18.9856 21.274 19.5547 20.8874 19.9884L22.007 20.9866C22.6732 20.2394 22.9707 19.3337 23.1124 18.2226C23.2514 17.1321 23.25 15.7493 23.25 14.0004H21.75ZM14 22.7504C15.8617 22.7504 17.321 22.7515 18.4694 22.6218C19.6316 22.4905 20.574 22.2168 21.3574 21.5981L20.4277 20.4209C19.9564 20.7931 19.3318 21.0148 18.301 21.1313C17.2565 21.2493 15.8969 21.2504 14 21.2504V22.7504ZM20.8874 19.9884C20.7483 20.1444 20.5946 20.2892 20.4277 20.4209L21.3574 21.5981C21.5919 21.4129 21.8093 21.2084 22.007 20.9866L20.8874 19.9884ZM3.25 14.0004C3.25 12.2118 3.25143 10.9415 3.37558 9.96799C3.49708 9.01519 3.72599 8.44606 4.11262 8.0124L2.99298 7.0142C2.32681 7.76141 2.02932 8.66709 1.88762 9.77825C1.74857 10.8687 1.75 12.2515 1.75 14.0004H3.25ZM3.64263 6.40268C3.40811 6.58789 3.19068 6.79245 2.99298 7.0142L4.11262 8.0124C4.2517 7.8564 4.40545 7.71161 4.57229 7.57986L3.64263 6.40268ZM23.25 14.0004C23.25 13.7412 23.2504 13.4875 23.25 13.2445L21.75 13.2471C21.7504 13.4885 21.75 13.7376 21.75 14.0004H23.25ZM9.55734 5.25294C8.14978 5.26091 7.00411 5.29333 6.06558 5.44144C5.11301 5.59178 4.31862 5.86882 3.64263 6.40268L4.57229 7.57986C4.97956 7.25822 5.50124 7.04907 6.29942 6.92311C7.11164 6.79492 8.15139 6.76092 9.56582 6.75292L9.55734 5.25294Z" fill="#763A26"/>
<path d="M10.5 18H12" stroke="#763A26" stroke-width="1.5" stroke-miterlimit="10" stroke-linecap="round" stroke-linejoin="round"/>
<path d="M15 18H18.5" stroke="#763A26" stroke-width="1.5" stroke-miterlimit="10" stroke-linecap="round" stroke-linejoin="round"/>
<path d="M3 11H10.5" stroke="#763A26" stroke-width="1.5" stroke-linecap="round" stroke-linejoin="round"/>
</svg>
