<svg width="8" height="6" viewBox="0 0 8 6" fill="none" xmlns="http://www.w3.org/2000/svg">
<path d="M0.400241 4.76837e-07H7.60045C7.67334 0.000229418 7.7448 0.0203707 7.80712 0.0582557C7.86944 0.0961407 7.92027 0.150335 7.95413 0.215005C7.988 0.279675 8.00361 0.352373 7.9993 0.425272C7.99498 0.498172 7.97091 0.568512 7.92965 0.628722L4.32955 5.83801C4.18035 6.054 3.82114 6.054 3.67153 5.83801L0.0714315 0.628722C0.0297603 0.568638 0.00532331 0.498262 0.000775592 0.425241C-0.00377212 0.35222 0.0117434 0.279348 0.0456364 0.21454C0.0795294 0.149733 0.130504 0.0954693 0.193021 0.0576458C0.255538 0.0198223 0.327207 -0.000114762 0.400241 4.76837e-07Z" fill="#3D3D3D"/>
</svg>
